# xmcd
#
# Track frame offsets:
#	182
#	15692
#	34175
#	51562
#	71835
#	88857
#	100825
#	118930
#	145147
#	159735
#	175227
#	191980
#	217152
#	233552
#	254477
#	276147
#
# Disc length: 3901 seconds
#
# Revision: 1
# Processed by: cddbd v1.4PL0 Copyright (c) Steve Scherf et al.
# Submitted via: audiograbber 1.80
#
DISCID=fa0f3b10
DTITLE=Western Union - Die bärenstarken Songs
DYEAR=1900
DGENRE=
TTITLE0=Auf der Autobahn
TTITLE1=Gottseidank ist endlich wieder Sommer
TTITLE2=Man sollte einen Drink nach dir benennen
TTITLE3=Gott ich hoff' der Tag wird gut
TTITLE4=Bi-Ba-Baby
TTITLE5=Ein Mann mit Bauch der tuts doch auch
TTITLE6=Ich hab' dich
TTITLE7=Transit Cowboy
TTITLE8=Der liebe Gott der muss 'n Cowboy sein
TTITLE9=Wer glaubst du wer du bist
TTITLE10=Ich möcht so gerne mal nach Nashville
TTITLE11=Ich stell mir vor Berlin ist Nashville
TTITLE12=Unser Lied im Radio
TTITLE13=Freitagabendteufel
TTITLE14=L.I.E.B.E.
TTITLE15=Bärenstark
EXTD=
EXTT0=
EXTT1=
EXTT2=
EXTT3=
EXTT4=
EXTT5=
EXTT6=
EXTT7=
EXTT8=
EXTT9=
EXTT10=
EXTT11=
EXTT12=
EXTT13=
EXTT14=
EXTT15=
PLAYORDER=
